<?xml version="1.0" encoding="utf-8"?>
<!-- Generator: Adobe Illustrator 19.1.0, SVG Export Plug-In . SVG Version: 6.00 Build 0)  -->
<svg version="1.1" id="Layer_1" xmlns="http://www.w3.org/2000/svg" xmlns:xlink="http://www.w3.org/1999/xlink" x="0px" y="0px"
	 viewBox="0 0 128 128" style="enable-background:new 0 0 128 128;" xml:space="preserve">
<style type="text/css">
	.st0{fill:#2D4552;}
	.st1{fill:#243641;}
	.st2{fill:#C05447;}
	.st3{fill:#E6E6E5;}
	.st4{fill:#CDCCCC;}
	.st5{fill:#CD584C;}
	.st6{fill:#B44F43;}
</style>
<g>
	<circle class="st0" cx="64" cy="64" r="64"/>
	<path class="st1" d="M122,91.1L122,91.1L100,37h-3.5l0-0.1c0,0,0,0,0,0l-0.2-0.5c0,0,0,0,0,0l-0.2-0.5c0,0,0,0,0,0l-0.2-0.5
		c0,0,0,0,0,0l-0.2-0.5c0,0,0,0,0,0l-0.2-0.5c0,0,0,0,0,0l-0.2-0.5c0,0,0,0,0,0l-0.2-0.5c0,0,0,0,0,0l-0.2-0.5c0,0,0,0,0,0l-0.2-0.5
		c0,0,0,0,0,0l-0.2-0.5c0,0,0,0,0,0l-0.2-0.5c0,0,0,0,0,0L94,30.8c0,0,0,0,0,0l-0.2-0.5c0,0,0,0,0,0l-0.2-0.5c0,0,0,0,0,0l-0.2-0.5
		c0,0,0,0,0,0l-0.2-0.5c0,0,0,0,0,0L93,28.3c0,0,0,0,0,0l-0.2-0.5c0,0,0,0,0,0l-0.2-0.5c0,0,0,0,0,0l-0.2-0.5c0,0,0,0,0,0l-0.2-0.5
		c0,0,0,0,0,0L92,25.7c0,0,0,0,0,0l-0.2-0.5c0,0,0,0,0,0l-0.2-0.5c0,0,0,0,0,0l-0.2-0.5c0,0,0,0,0,0l-0.2-0.5c0,0,0,0,0,0l-0.2-0.5
		c0,0,0,0,0,0l-0.2-0.5c0,0,0,0,0,0.1l0-0.1c0,0-2.6-3.6-5.7-3.6c-6.3,0-9.7,8.8-16.2,11.9C68.3,29.8,67.3,29,66,29h-2h-2
		c-1.3,0-2.3,0.8-2.8,1.9C52.7,27.8,49.3,19,43,19c-3.1,0-5.7,3.6-5.7,3.6l0,0.1c0,0,0,0,0-0.1l-3.4,8.8l-0.4,1c0,0,0,0,0,0
		l-0.1,0.2c0,0.4,0.1,0.7,0.2,1c0,0.4,0.2,0.8,0.4,1.1c0.1,0.4,0.2,0.7,0.4,1c0.1,0.4,0.2,0.7,0.4,1c0,0.1,0,0.2,0.1,0.3h-7v1v13
		l3,6v1v1v1v43l8.7,20.2c7.5,3.1,15.7,4.8,24.3,4.8C89.7,128,111.8,112.9,122,91.1z"/>
	<path class="st2" d="M33.5,32.5l0.1-0.1c0,0,0,0-0.1,0L33.5,32.5z"/>
	<g>
		<rect x="31" y="50.5" class="st3" width="66" height="52"/>
		<rect x="31" y="50.5" class="st4" width="66" height="2"/>
		<rect x="93" y="50.5" class="st4" width="4" height="52"/>
		<rect x="28" y="36.5" class="st3" width="72" height="14"/>
		<rect x="96" y="36.5" class="st4" width="4" height="14"/>
		<rect x="52" y="36.5" class="st5" width="8" height="66"/>
		<rect x="52" y="50.5" class="st2" width="8" height="2"/>
		<rect x="68" y="36.5" class="st5" width="8" height="66"/>
		<rect x="68" y="50.5" class="st2" width="8" height="2"/>
		<path class="st6" d="M64,34.9C45,33,38.6,27.1,37.3,22.6l-3.8,9.9C33.5,39,56.2,37,60,37h4C64,37,64,35.9,64,34.9z"/>
		<path class="st5" d="M64,35.4c-9.7,3-20.7-10.5-30.5-3l0,0.1l3.9-10c0,0,2.6-3.6,5.7-3.6c7.7,0,11,13,21,13
			C64,33.5,64,35.4,64,35.4L64,35.4z"/>
		<path class="st6" d="M64,34.9c19-1.9,25.4-7.8,26.7-12.3l3.8,9.9C94.5,39,71.8,37,68,37h-4C64,37,64,35.9,64,34.9z"/>
		<path class="st5" d="M64,35.4c9.7,3,20.7-10.5,30.5-3l0,0.1l-3.9-10c0,0-2.6-3.6-5.7-3.6c-7.7,0-11,13-21,13
			C64,33.5,64,35.4,64,35.4L64,35.4z"/>
		<path class="st5" d="M69,33.5c0,1.7-1.3,3-3,3h-4c-1.7,0-3-1.3-3-3v-2c0-1.7,1.3-3,3-3h4c1.7,0,3,1.3,3,3V33.5z"/>
		<path class="st2" d="M69,29.5c0-0.6-0.4-1-1-1l0,0c-0.6,0-1,0.4-1,1v6c0,0.6,0.4,1,1,1l0,0c0.6,0,1-0.4,1-1V29.5z"/>
	</g>
</g>
</svg>
